<svg width="48" height="48" viewBox="0 0 48 48" fill="none" xmlns="http://www.w3.org/2000/svg">
<path d="M24 45C21.13 45 18.4175 44.4487 15.8625 43.3462C13.3075 42.2437 11.0762 40.7387 9.16875 38.8312C7.26125 36.9237 5.75625 34.6925 4.65375 32.1375C3.55125 29.5825 3 26.87 3 24C3 21.095 3.55125 18.365 4.65375 15.81C5.75625 13.255 7.26125 11.0325 9.16875 9.1425C11.0762 7.2525 13.3075 5.75625 15.8625 4.65375C18.4175 3.55125 21.13 3 24 3C26.905 3 29.635 3.55125 32.19 4.65375C34.745 5.75625 36.9675 7.2525 38.8575 9.1425C40.7475 11.0325 42.2437 13.255 43.3462 15.81C44.4487 18.365 45 21.095 45 24C45 26.87 44.4487 29.5825 43.3462 32.1375C42.2437 34.6925 40.7475 36.9237 38.8575 38.8312C36.9675 40.7387 34.745 42.2437 32.19 43.3462C29.635 44.4487 26.905 45 24 45ZM24 41.85C28.97 41.85 33.1875 40.1088 36.6525 36.6263C40.1175 33.1438 41.85 28.935 41.85 24C41.85 19.03 40.1175 14.8125 36.6525 11.3475C33.1875 7.8825 28.97 6.15 24 6.15C19.065 6.15 14.8562 7.8825 11.3737 11.3475C7.89125 14.8125 6.15 19.03 6.15 24C6.15 28.935 7.89125 33.1438 11.3737 36.6263C14.8562 40.1088 19.065 41.85 24 41.85Z" fill="#4B6DD2"/>
</svg>
