<svg width="48" height="48" viewBox="0 0 48 48" fill="none" xmlns="http://www.w3.org/2000/svg">
<path d="M7.65359 42.7935C6.98727 43.4598 5.90695 43.4598 5.24062 42.7935V42.7935C4.5743 42.1272 4.5743 41.0469 5.24062 40.3806L21.57 24.0512L5.24063 7.72189C4.55545 7.03671 4.55545 5.92581 5.24062 5.24063V5.24063C5.9258 4.55545 7.0367 4.55545 7.72188 5.24063L24.0512 21.57L40.3659 5.22527C41.0397 4.55023 42.1345 4.55378 42.8039 5.23318V5.23318C43.4659 5.90507 43.4619 6.98517 42.795 7.65213L26.43 24.0171L42.7935 40.3805C43.4598 41.0469 43.4598 42.1272 42.7935 42.7935V42.7935C42.1272 43.4598 41.0469 43.4598 40.3805 42.7935L24.0171 26.43L7.65359 42.7935Z" fill="#D24B4B"/>
</svg>
